#!OML:ASF G:\ViconDB\ViconDB\414\test\team2\shane.ASF
:FULLY-SPECIFIED
:DEGREES
164
root 1.75197 16.8055 4.78534 -11.0226 0.930528 -5.79348
lowerback 9.68665 -0.121556 0.721772
upperback 4.5561 -0.0645549 2.08251
thorax -0.701041 -0.0423612 1.75174
lowerneck -17.0431 -5.54919 -11.1601
upperneck 20.4842 -7.50007 11.6378
head 10.2314 -3.06913 4.94329
rclavicle 1.78906e-015 2.04748e-014
rhumerus -43.6381 10.953 -83.5728
rradius 33.7006
rwrist 37.299
rhand -35.5565 -11.6828
rfingers 7.12502
rthumb -8.68182 -41.4843
lclavicle 1.78906e-015 2.04748e-014
lhumerus -21.0761 -20.8575 95.424
lradius 33.0072
lwrist -18.6332
lhand -43.1888 5.89755
lfingers 7.12502
lthumb -16.0401 35.2536
rfemur -7.95479 -18.4805 14.241
rtibia 62.0362
rfoot -14.3363 11.1306
rtoes -16.0583
lfemur 8.59595 5.32636 -11.4593
ltibia 26.6492
lfoot -28.6849 -14.9843
ltoes -5.72999
165
root 1.73793 16.8078 4.97737 -11.0289 1.44336 -6.11019
lowerback 9.58415 -0.434 0.875968
upperback 4.6977 -0.469013 2.24868
thorax -0.487097 -0.24484 1.87601
lowerneck -17.2769 -5.50433 -11.3526
upperneck 20.4583 -7.34194 11.5863
head 10.2511 -3.00972 4.97848
rclavicle -1.3623e-014 2.98177e-015
rhumerus -43.8873 7.93014 -80.6596
rradius 31.2042
rwrist 40.0289
rhand -35.0986 -11.7393
rfingers 7.12502
rthumb -8.23993 -41.5586
lclavicle -1.3623e-014 2.98177e-015
lhumerus -19.2888 -21.495 95.8415
lradius 34.9678
lwrist -18.1822
lhand -43.9637 5.81737
lfingers 7.12502
lthumb -16.7862 35.1117
rfemur -9.28683 -18.966 15.119
rtibia 60.4969
rfoot -14.3363 11.1306
rtoes -16.0583
lfemur 9.70339 5.46935 -10.813
ltibia 25.5991
lfoot -28.8665 -15.9089
ltoes -5.59437
166
root 1.71941 16.8196 5.17441 -10.9811 2.07185 -6.17376
lowerback 9.56311 -0.808893 0.544137
upperback 4.72536 -0.99417 2.37489
thorax -0.424395 -0.514614 2.24425
lowerneck -17.5029 -5.32475 -11.6546
upperneck 20.5734 -7.02182 11.7237
head 10.3096 -2.86402 5.1323
rclavicle -7.36746e-015 -3.43897e-014
rhumerus -44.3292 4.17932 -77.1583
rradius 28.8552
rwrist 43.761
rhand -34.5178 -11.1875
rfingers 7.12502
rthumb -7.67938 -41.0281
lclavicle -7.36746e-015 -3.43897e-014
lhumerus -17.8789 -22.2894 96.0307
lradius 37.3725
lwrist -17.2257
lhand -44.7331 6.12938
lfingers 7.12502
lthumb -17.5268 35.3593
rfemur -10.5618 -19.3885 15.7062
rtibia 58.7185
rfoot -15.8641 9.10277
rtoes -15.4392
lfemur 10.841 5.36729 -10.5359
ltibia 24.3717
lfoot -28.8844 -16.5225
ltoes -6.29478
167
root 1.70917 16.8231 5.36517 -10.7934 2.58674 -6.24719
lowerback 9.59201 -1.14536 0.494672
upperback 4.62082 -1.44065 2.47944
thorax -0.528412 -0.739261 2.42573
lowerneck -17.6425 -5.29902 -11.7707
upperneck 20.6843 -6.88213 11.4697
head 10.3509 -2.83246 5.08137
rclavicle -1.95741e-014 2.5842e-014
rhumerus -45.1325 0.744701 -73.4719
rradius 26.9577
rwrist 46.7488
rhand -34.6035 -11.0812
rfingers 7.12502
rthumb -7.76204 -40.9187
lclavicle -1.95741e-014 2.5842e-014
lhumerus -16.6654 -22.8513 96.4085
lradius 39.8664
lwrist -16.5585
lhand -44.9478 6.41194
lfingers 7.12502
lthumb -17.7334 35.6233
rfemur -11.9257 -19.7485 16.3197
rtibia 56.7316
rfoot -16.4311 8.36434
rtoes -15.6038
lfemur 11.8545 5.35008 -10.2518
ltibia 23.0831
lfoot -28.7253 -17.2828
ltoes -6.00779
168
root 1.69159 16.832 5.56951 -10.7638 2.89458 -6.33419
lowerback 9.71514 -1.45043 0.285081
upperback 4.47658 -1.8566 2.59838
thorax -0.71797 -0.950247 2.71405
lowerneck -17.5806 -5.08922 -11.792
upperneck 20.8276 -6.53707 11.2299
head 10.3347 -2.70411 5.05364
rclavicle 1.35733e-014 -4.76089e-014
rhumerus -46.3928 -1.67498 -70.1938
rradius 25.4265
rwrist 49.2938
rhand -34.6147 -11.1795
rfingers 7.12502
rthumb -7.77286 -41.0166
lclavicle 1.35733e-014 -4.76089e-014
lhumerus -15.6858 -23.0362 96.5379
lradius 42.237
lwrist -16.5008
lhand -45.198 6.05089
lfingers 7.12502
lthumb -17.9742 35.2403
rfemur -13.0208 -19.7802 16.9104
rtibia 54.5256
rfoot -16.8525 8.15453
rtoes -14.7486
lfemur 13.2444 5.46293 -9.85022
ltibia 21.5601
lfoot -28.5624 -17.9523
ltoes -6.11947
169
root 1.67381 16.831 5.77652 -10.6068 3.33141 -6.31076
lowerback 9.83649 -1.77543 -0.117857
upperback 4.2132 -2.31317 2.78118
thorax -1.01224 -1.18177 3.18694
lowerneck -17.4891 -4.87327 -11.9856
upperneck 20.9708 -6.16676 11.1084
head 10.3207 -2.56612 5.10295
rclavicle 3.19764e-015 1.09332e-014
rhumerus -47.923 -3.61734 -66.5008
rradius 24.4662
rwrist 52.0309
rhand -34.399 -10.7444
rfingers 7.12502
rthumb -7.56472 -40.5891
lclavicle 3.19764e-015 1.09332e-014
lhumerus -15.0165 -23.3406 96.8428
lradius 44.737
lwrist -16.4381
lhand -45.9982 6.20085
lfingers 7.12502
lthumb -18.7439 35.3178
rfemur -14.1277 -20.22 17.3658
rtibia 52.1282
rfoot -17.4055 8.1019
rtoes -14.1071
lfemur 14.4517 5.74515 -9.46785
ltibia 20.0637
lfoot -28.3429 -19.1147
ltoes -5.94217
170
root 1.65408 16.8292 5.98931 -10.5771 3.39816 -6.21931
lowerback 9.98143 -1.98368 -0.526189
upperback 4.06643 -2.62069 2.89181
thorax -1.20197 -1.33809 3.57387
lowerneck -17.4875 -4.66986 -12.019
upperneck 21.1453 -5.83112 10.9032
head 10.3315 -2.43806 5.08835
rclavicle -3.59987e-014 2.04872e-014
rhumerus -49.3093 -5.54381 -62.9471
rradius 23.6142
rwrist 54.3966
rhand -34.6546 -10.8839
rfingers 7.12502
rthumb -7.81138 -40.7196
lclavicle -3.59987e-014 2.04872e-014
lhumerus -14.41 -23.7403 96.8404
lradius 47.5479
lwrist -16.5871
lhand -46.2811 6.64175
lfingers 7.12502
lthumb -19.0161 35.7322
rfemur -15.0014 -20.0709 17.8545
rtibia 49.5609
rfoot -18.06 8.1295
rtoes -14.381
lfemur 15.9739 6.51632 -8.92015
ltibia 18.4154
lfoot -28.067 -20.4281
ltoes -5.88556
171
root 1.63519 16.8182 6.19246 -10.303 3.83017 -6.31297
lowerback 10.0098 -2.31715 -0.687672
upperback 3.8127 -3.07017 3.05633
thorax -1.4329 -1.56047 3.89225
lowerneck -17.3917 -4.49427 -12.0577
upperneck 21.1597 -5.5194 10.65
head 10.2697 -2.32885 5.04805
rclavicle -4.76478e-014 1.66482e-014
rhumerus -50.7442 -5.9807 -60.4169
rradius 23.54
rwrist 53.8991
rhand -33.5586 -9.88699
rfingers 7.12502
rthumb -6.75344 -39.7593
lclavicle -4.76478e-014 1.66482e-014
lhumerus -13.8454 -23.9686 96.8898
lradius 50.1725
lwrist -17.1958
lhand -46.1802 6.24923
lfingers 7.12502
lthumb -18.919 35.3492
rfemur -16.0602 -20.4085 18.5177
rtibia 46.8733
rfoot -18.5578 8.15524
rtoes -15.3733
lfemur 17.1175 6.52897 -8.50461
ltibia 16.7179
lfoot -27.5547 -21.1354
ltoes -5.77097
172
root 1.61468 16.8035 6.39846 -10.115 4.19902 -6.10858
lowerback 10.1879 -2.60811 -1.22365
upperback 3.56534 -3.50028 3.16377
thorax -1.71593 -1.773 4.37079
lowerneck -17.4482 -4.30887 -12.0616
upperneck 21.3342 -5.2002 10.4055
head 10.2936 -2.20923 5.01045
rclavicle 2.85101e-014 -4.29375e-014
rhumerus -52.2817 -5.91486 -58.0731
rradius 23.3745
rwrist 55.0483
rhand -34.0934 -10.7652
rfingers 7.12502
rthumb -7.2697 -40.6203
lclavicle 2.85101e-014 -4.29375e-014
lhumerus -13.4023 -24.4471 96.8869
lradius 52.8878
lwrist -17.0191
lhand -46.8192 5.97752
lfingers 7.12502
lthumb -19.5334 35.0163
rfemur -16.9378 -20.4752 18.7442
rtibia 44.1312
rfoot -18.6478 8.52294
rtoes -14.9734
lfemur 18.5051 6.98328 -8.20482
ltibia 14.8137
lfoot -27.0349 -22.3038
ltoes -5.76621
